<svg width="13" height="13" viewBox="0 0 13 13" fill="none" xmlns="http://www.w3.org/2000/svg">
<g clip-path="url(#clip0_6933_2084)">
<path fill-rule="evenodd" clip-rule="evenodd" d="M12.9258 5.96875C12.9258 9.28246 10.2395 11.9688 6.92578 11.9688C3.61207 11.9688 0.925781 9.28246 0.925781 5.96875C0.925781 2.65504 3.61207 -0.03125 6.92578 -0.03125C10.2395 -0.03125 12.9258 2.65504 12.9258 5.96875ZM8.70272 3.78437C8.21739 3.45371 7.66272 3.28837 7.03872 3.28837C6.51072 3.28837 6.02539 3.41104 5.58272 3.65637C5.14539 3.90171 4.79872 4.24304 4.54272 4.68037C4.28672 5.11771 4.15872 5.61104 4.15872 6.16037C4.15872 6.70971 4.28672 7.20304 4.54272 7.64038C4.79872 8.07771 5.14539 8.41904 5.58272 8.66438C6.02539 8.90971 6.51072 9.03238 7.03872 9.03238C7.66272 9.03238 8.21739 8.86704 8.70272 8.53638C9.18805 8.20571 9.52672 7.74704 9.71872 7.16037H8.08672C7.97472 7.37904 7.83339 7.53638 7.66272 7.63237C7.49205 7.72837 7.28405 7.77637 7.03872 7.77637C6.58539 7.77637 6.22272 7.62971 5.95072 7.33637C5.68405 7.04304 5.55072 6.65104 5.55072 6.16037C5.55072 5.66971 5.68405 5.27771 5.95072 4.98438C6.22272 4.69104 6.58539 4.54437 7.03872 4.54437C7.28405 4.54437 7.49205 4.59237 7.66272 4.68837C7.83339 4.78437 7.97472 4.94171 8.08672 5.16037H9.71872C9.52672 4.57371 9.18805 4.11504 8.70272 3.78437Z" fill="#FFA800"/>
</g>
<defs>
<clipPath id="clip0_6933_2084">
<rect width="12" height="12" fill="white" transform="matrix(1 0 0 -1 0.945312 12.0859)"/>
</clipPath>
</defs>
</svg>
